<?xml version="1.0" encoding="utf-8"?><!-- Uploaded to: SVG Repo, www.svgrepo.com, Generator: SVG Repo Mixer Tools -->
<svg width="800px" height="800px" viewBox="0 0 24 24" fill="none" xmlns="http://www.w3.org/2000/svg">
<path fill-rule="evenodd" clip-rule="evenodd" d="M9 5.25C7.03323 5.25 5.25 7.15209 5.25 9.75C5.25 12.0121 6.60204 13.7467 8.25001 14.1573V10.9014L6.33398 9.62405L7.16603 8.37597L8.792 9.45995L9.87597 7.83398L11.124 8.66603L9.75001 10.7271V14.1573C11.398 13.7467 12.75 12.0121 12.75 9.75C12.75 7.15209 10.9668 5.25 9 5.25ZM3.75 9.75C3.75 12.6785 5.62993 15.2704 8.25001 15.6906V19.5H3V21H21V19.5H18.75V18L18 17.25H12L11.25 18V19.5H9.75001V15.6906C12.3701 15.2704 14.25 12.6785 14.25 9.75C14.25 6.54892 12.0038 3.75 9 3.75C5.99621 3.75 3.75 6.54892 3.75 9.75ZM12.75 19.5H17.25V18.75H12.75V19.5Z" fill="#080341"/>
</svg>