<?xml version="1.0" encoding="utf-8"?><!-- Uploaded to: SVG Repo, www.svgrepo.com, Generator: SVG Repo Mixer Tools -->
<svg fill="#000000" width="800px" height="800px" viewBox="0 0 1024 1024" xmlns="http://www.w3.org/2000/svg"><path d="M979.845 615.424c0-7.252-19.662-21.198-57.386-32.516-43.739-13.122-103.707-20.732-167.894-20.732s-124.155 7.61-167.894 20.732c-37.724 11.318-57.386 25.263-57.386 32.516s19.662 21.198 57.386 32.516c43.739 13.122 103.707 20.732 167.894 20.732s124.155-7.61 167.894-20.732c37.724-11.318 57.386-25.263 57.386-32.516zm40.96 0c0 58.643-118.543 94.208-266.24 94.208s-266.24-35.565-266.24-94.208 118.543-94.208 266.24-94.208 266.24 35.565 266.24 94.208zm-59.65 98.918c-38.954 21.718-118.316 36.248-206.593 36.248-83.81 0-159.758-13.065-200.861-33.251-10.153-4.986-22.425-.798-27.411 9.355s-.798 22.425 9.355 27.411c47.597 23.375 129.39 37.446 218.917 37.446 94.63 0 180.385-15.701 226.539-41.433 9.879-5.508 13.423-17.982 7.915-27.861s-17.982-13.423-27.861-7.915zM437.125 225.28c0 51.479-93.865 81.92-209.92 81.92s-209.92-30.441-209.92-81.92 93.865-81.92 209.92-81.92 209.92 30.441 209.92 81.92zm-40.96 0c0-1.02-1.683-3.687-6.869-7.664-7.433-5.7-19.229-11.362-34.455-16.3-33.106-10.737-78.734-16.995-127.635-16.995s-94.529 6.259-127.635 16.995c-15.227 4.938-27.022 10.6-34.455 16.3-5.187 3.977-6.869 6.644-6.869 7.664s1.683 3.687 6.869 7.664c7.433 5.7 19.229 11.362 34.455 16.3 33.106 10.737 78.734 16.995 127.635 16.995s94.529-6.259 127.635-16.995c15.227-4.938 27.022-10.6 34.455-16.3 5.187-3.977 6.869-6.644 6.869-7.664zM305.58 727.714c58.473 10.948 94.741 34.161 94.741 52.594 0 27.759-73.152 58.921-165.919 58.921S68.483 808.067 68.483 780.308c0-17.805 34.087-40.332 89.994-51.67 11.085-2.248 18.249-13.057 16.001-24.142s-13.057-18.249-24.142-16.001c-73.024 14.809-122.813 47.714-122.813 91.813 0 59.938 93.765 99.881 206.879 99.881s206.879-39.943 206.879-99.881c0-45.176-52.302-78.651-128.163-92.855-11.118-2.082-21.818 5.243-23.899 16.361s5.243 21.818 16.361 23.899z"/><path d="M396.864 229.741l15.841 162.826c11.252 115.688-72.366 215.627-182.89 215.627h-4.966c-110.525 0-194.142-99.939-182.89-215.628L57.8 229.74c1.095-11.258-7.143-21.272-18.401-22.367s-21.272 7.143-22.367 18.401L1.191 388.6C-12.332 527.636 89.34 649.153 224.849 649.153h4.966c135.509 0 237.181-121.518 223.658-260.553l-15.841-162.827c-1.095-11.258-11.109-19.496-22.367-18.401s-19.496 11.109-18.401 22.367z"/><path d="M209.336 628.675V768c0 11.311 9.169 20.48 20.48 20.48s20.48-9.169 20.48-20.48V628.675c0-11.311-9.169-20.48-20.48-20.48s-20.48 9.169-20.48 20.48z"/></svg>